<svg width="40" height="40" viewBox="0 0 40 40" fill="none" xmlns="http://www.w3.org/2000/svg">
<ellipse cx="20" cy="19.7297" rx="20" ry="19.7297" fill="#F57E21"/>
<g clip-path="url(#clip0)">
<path d="M15.4725 15.0435H11V28.6076H15.4725V15.0435Z" fill="white"/>
<path d="M27.655 15.2025C27.6075 15.1877 27.5625 15.1717 27.5125 15.1581C27.4525 15.1446 27.3925 15.1335 27.3312 15.1236C27.0937 15.0768 26.8338 15.0435 26.5288 15.0435C23.9213 15.0435 22.2675 16.9141 21.7225 17.6367V15.0435H17.25V28.6076H21.7225V21.209C21.7225 21.209 25.1025 16.5651 26.5288 19.9759C26.5288 23.0204 26.5288 28.6076 26.5288 28.6076H31V19.4543C31 17.4049 29.5763 15.697 27.655 15.2025Z" fill="white"/>
<path d="M13.1875 13.1938C14.3956 13.1938 15.375 12.2277 15.375 11.0359C15.375 9.84407 14.3956 8.87793 13.1875 8.87793C11.9794 8.87793 11 9.84407 11 11.0359C11 12.2277 11.9794 13.1938 13.1875 13.1938Z" fill="white"/>
</g>
<defs>
<clipPath id="clip0">
<path d="M11 18.8779C11 13.3551 15.4772 8.87793 21 8.87793C26.5228 8.87793 31 13.3551 31 18.8779V28.6077H11V18.8779Z" fill="white"/>
</clipPath>
</defs>
</svg>
