<svg width="40" height="40" viewBox="0 0 40 40" fill="none" xmlns="http://www.w3.org/2000/svg">
<ellipse cx="20" cy="19.7297" rx="20" ry="19.7297" fill="#F57E21"/>
<g clip-path="url(#clip0)">
<path d="M24.4805 9.8645H15.5191C12.4759 9.8645 10 12.307 10 15.3092V24.1495C10 27.1517 12.4759 29.5941 15.5191 29.5941H24.4805C27.524 29.5941 29.9999 27.1516 29.9999 24.1495V15.3092C30 12.307 27.524 9.8645 24.4805 9.8645ZM28.2255 24.1495C28.2255 26.1865 26.5455 27.8436 24.4806 27.8436H15.5191C13.4543 27.8437 11.7745 26.1865 11.7745 24.1495V15.3092C11.7745 13.2723 13.4543 11.615 15.5191 11.615H24.4805C26.5454 11.615 28.2254 13.2723 28.2254 15.3092V24.1495H28.2255Z" fill="white"/>
<path d="M20.0001 14.6458C17.1585 14.6458 14.8467 16.9263 14.8467 19.7296C14.8467 22.5327 17.1585 24.8132 20.0001 24.8132C22.8418 24.8132 25.1536 22.5327 25.1536 19.7296C25.1536 16.9263 22.8418 14.6458 20.0001 14.6458ZM20.0001 23.0625C18.1371 23.0625 16.6212 21.5674 16.6212 19.7295C16.6212 17.8914 18.1369 16.3961 20.0001 16.3961C21.8634 16.3961 23.3791 17.8914 23.3791 19.7295C23.3791 21.5674 21.8632 23.0625 20.0001 23.0625Z" fill="white"/>
<path d="M25.3697 13.1614C25.0278 13.1614 24.6919 13.2979 24.4505 13.5372C24.2078 13.7752 24.0684 14.1067 24.0684 14.4451C24.0684 14.7825 24.208 15.1138 24.4505 15.353C24.6918 15.5911 25.0278 15.7288 25.3697 15.7288C25.7127 15.7288 26.0475 15.5911 26.29 15.353C26.5325 15.1138 26.6709 14.7823 26.6709 14.4451C26.6709 14.1067 26.5325 13.7752 26.29 13.5372C26.0487 13.2979 25.7127 13.1614 25.3697 13.1614Z" fill="white"/>
</g>
<defs>
<clipPath id="clip0">
<path d="M10 19.8645C10 14.3417 14.4772 9.8645 20 9.8645C25.5228 9.8645 30 14.3417 30 19.8645V29.5942H10V19.8645Z" fill="white"/>
</clipPath>
</defs>
</svg>
