<svg width="40" height="40" viewBox="0 0 40 40" fill="none" xmlns="http://www.w3.org/2000/svg">
<ellipse cx="20" cy="19.7297" rx="20" ry="19.7297" fill="#F57E21"/>
<path d="M29.15 14.2544C28.6075 13.3024 28.0188 13.1273 26.82 13.0607C25.6225 12.9806 22.6112 12.9473 20.0025 12.9473C17.3887 12.9473 14.3762 12.9806 13.18 13.0595C11.9837 13.1273 11.3937 13.3012 10.8462 14.2544C10.2875 15.2051 10 16.8427 10 19.7257C10 19.7281 10 19.7294 10 19.7294C10 19.7318 10 19.7331 10 19.7331V19.7355C10 22.6062 10.2875 24.2561 10.8462 25.197C11.3937 26.1489 11.9825 26.3216 13.1788 26.4017C14.3762 26.4708 17.3887 26.5115 20.0025 26.5115C22.6112 26.5115 25.6225 26.4708 26.8212 26.4029C28.02 26.3228 28.6087 26.1502 29.1513 25.1982C29.715 24.2573 30 22.6074 30 19.7368C30 19.7368 30 19.7331 30 19.7306C30 19.7306 30 19.7281 30 19.7269C30 16.8427 29.715 15.2051 29.15 14.2544ZM17.5 23.4287V16.03L23.75 19.7294L17.5 23.4287Z" fill="white"/>
</svg>
