<svg width="165" height="40" viewBox="0 0 165 40" fill="none" xmlns="http://www.w3.org/2000/svg">
<path d="M7.06 29.8L6.6 27.02L3.62 27.14L2.86 30.9L0.06 30.66L3.64 16.16L7.34 16.48L9.96 30.04L7.06 29.8ZM5.3 18.78L4.04 25L6.28 24.92L5.3 18.78ZM13.7525 21.9C14.2858 21.0867 14.9458 20.68 15.7325 20.68C16.5192 20.68 17.1325 21 17.5725 21.64C18.0125 22.28 18.2325 23.12 18.2325 24.16C18.2325 25.7067 17.8992 27.1133 17.2325 28.38C16.5792 29.6467 15.8792 30.28 15.1325 30.28C14.5992 30.28 14.1392 30.2133 13.7525 30.08C13.7792 31.92 13.8258 33.5267 13.8925 34.9L11.5525 34.66C11.4858 32.26 11.4525 29.7133 11.4525 27.02C11.4525 24.3133 11.5458 21.98 11.7325 20.02L13.8125 20.24L13.7525 21.9ZM14.3525 28.28C14.7258 28.28 15.0725 27.9133 15.3925 27.18C15.7258 26.4467 15.8925 25.7133 15.8925 24.98C15.8925 24.2333 15.8258 23.66 15.6925 23.26C15.5592 22.8467 15.4058 22.64 15.2325 22.64C14.9392 22.64 14.6792 22.8133 14.4525 23.16C14.2392 23.5067 14.0125 24.0067 13.7725 24.66C13.7592 25.3533 13.7525 26.42 13.7525 27.86C13.9525 28.14 14.1525 28.28 14.3525 28.28ZM21.9556 21.9C22.489 21.0867 23.149 20.68 23.9356 20.68C24.7223 20.68 25.3356 21 25.7756 21.64C26.2156 22.28 26.4356 23.12 26.4356 24.16C26.4356 25.7067 26.1023 27.1133 25.4356 28.38C24.7823 29.6467 24.0823 30.28 23.3356 30.28C22.8023 30.28 22.3423 30.2133 21.9556 30.08C21.9823 31.92 22.029 33.5267 22.0956 34.9L19.7556 34.66C19.689 32.26 19.6556 29.7133 19.6556 27.02C19.6556 24.3133 19.749 21.98 19.9356 20.02L22.0156 20.24L21.9556 21.9ZM22.5556 28.28C22.929 28.28 23.2756 27.9133 23.5956 27.18C23.929 26.4467 24.0956 25.7133 24.0956 24.98C24.0956 24.2333 24.029 23.66 23.8956 23.26C23.7623 22.8467 23.609 22.64 23.4356 22.64C23.1423 22.64 22.8823 22.8133 22.6556 23.16C22.4423 23.5067 22.2156 24.0067 21.9756 24.66C21.9623 25.3533 21.9556 26.42 21.9556 27.86C22.1556 28.14 22.3556 28.28 22.5556 28.28ZM36.9425 18.5C36.3558 18.5 35.8425 19.2267 35.4025 20.68C34.9625 22.12 34.7425 23.4 34.7425 24.52C34.7425 26.8667 35.3558 28.04 36.5825 28.04C36.9292 28.04 37.2292 27.8933 37.4825 27.6C37.7492 27.2933 37.9358 26.98 38.0425 26.66C38.1625 26.34 38.3025 25.9 38.4625 25.34L41.0025 25.54C40.6558 27.18 40.1358 28.4333 39.4425 29.3C38.7625 30.1667 37.8092 30.6 36.5825 30.6C35.1425 30.6 34.0292 30.06 33.2425 28.98C32.4692 27.8867 32.0825 26.5 32.0825 24.82C32.0825 22.86 32.4692 20.9533 33.2425 19.1C33.6158 18.18 34.1358 17.4267 34.8025 16.84C35.4825 16.24 36.2558 15.94 37.1225 15.94C38.1892 15.94 38.9625 16.2933 39.4425 17C39.6825 17.3467 39.8758 17.7 40.0225 18.06C40.1825 18.42 40.2958 18.88 40.3625 19.44C40.4825 20.3333 40.5558 21.2933 40.5825 22.32L38.0025 22.08C38.0025 20.36 37.8425 19.28 37.5225 18.84C37.3758 18.6133 37.1825 18.5 36.9425 18.5ZM44.0309 26.4C44.0309 27.9067 44.3643 28.66 45.0309 28.66C45.3243 28.66 45.5709 28.24 45.7709 27.4C45.9709 26.5467 46.0709 25.7333 46.0709 24.96C46.0709 23.2533 45.7909 22.4 45.2309 22.4C44.8709 22.4 44.5776 22.86 44.3509 23.78C44.1376 24.6867 44.0309 25.56 44.0309 26.4ZM41.6909 26.22C41.6909 24.98 41.9443 23.7667 42.4509 22.58C42.7176 21.98 43.0909 21.4933 43.5709 21.12C44.0643 20.7333 44.6109 20.54 45.2109 20.54C45.8109 20.54 46.3243 20.68 46.7509 20.96C47.1909 21.2267 47.5243 21.5867 47.7509 22.04C48.1909 22.9333 48.4109 23.9067 48.4109 24.96C48.4109 26.4133 48.1109 27.7067 47.5109 28.84C46.9243 29.96 46.0976 30.52 45.0309 30.52C42.8043 30.52 41.6909 29.0867 41.6909 26.22ZM53.7142 20.48C55.4742 20.48 56.3542 21.9467 56.3542 24.88C56.3542 26.4267 56.2676 28.0667 56.0942 29.8L53.7542 29.58C53.9009 28.06 53.9742 26.5267 53.9742 24.98C53.9742 23.42 53.7542 22.64 53.3142 22.64C53.1009 22.64 52.8276 23.18 52.4942 24.26C52.1609 25.3267 51.9542 26.3733 51.8742 27.4C51.9009 27.9467 51.9542 28.9333 52.0342 30.36L49.6942 30.14C49.5476 28.26 49.4742 26.6067 49.4742 25.18C49.4742 23.7533 49.5142 22.4733 49.5942 21.34L51.0742 21.5C51.1009 21.6067 51.2009 22.04 51.3742 22.8C52.1476 21.2533 52.9276 20.48 53.7142 20.48ZM62.7508 21.64V23.54C62.1108 23.54 61.6174 23.5467 61.2708 23.56C61.2308 24.8933 61.2108 27.1333 61.2108 30.28L58.8508 30.06C58.8508 27.7267 58.8708 25.6133 58.9108 23.72C58.7108 23.72 58.3308 23.7533 57.7708 23.82L57.4708 22.18C57.7908 22.1133 58.2908 22.0267 58.9708 21.92C58.9974 20.9333 59.0508 19.4933 59.1308 17.6L61.5108 17.82C61.4308 19.14 61.3708 20.42 61.3308 21.66C61.6641 21.6467 62.1374 21.64 62.7508 21.64ZM67.573 22.78C67.013 22.78 66.593 23.4867 66.313 24.9C66.3396 25.8333 66.353 26.7267 66.353 27.58C66.353 28.4333 66.3263 29.3933 66.273 30.46L63.953 30.26C63.993 28.3 64.013 27.22 64.013 27.02C64.013 24.5533 63.893 22.6667 63.653 21.36L65.153 21.52C65.2463 21.9067 65.353 22.2467 65.473 22.54C66.1263 21.14 66.7863 20.44 67.453 20.44C67.9996 20.44 68.4796 20.68 68.893 21.16L68.373 23C68.1596 22.8533 67.893 22.78 67.573 22.78ZM76.3686 20.62L76.3286 23.78C76.3286 26.7533 76.3819 28.94 76.4886 30.34L74.5086 30.14C74.4686 29.58 74.3819 29.0133 74.2486 28.44C73.5153 29.52 72.7753 30.06 72.0286 30.06C71.2953 30.06 70.7086 29.8067 70.2686 29.3C69.8286 28.7933 69.6086 28.0933 69.6086 27.2C69.6086 25.4667 69.7353 23.4 69.9886 21L72.3086 21.22C72.0686 23.5 71.9486 25.3933 71.9486 26.9C71.9486 27.58 72.1619 27.92 72.5886 27.92C72.7886 27.92 73.0286 27.6467 73.3086 27.1C73.6019 26.5533 73.8353 25.8933 74.0086 25.12C73.9953 24.8267 73.9886 24.48 73.9886 24.08C73.9886 23.68 74.0086 22.46 74.0486 20.42L76.3686 20.62ZM81.847 24.88C81.8737 24.6933 81.887 24.4533 81.887 24.16C81.887 23.8667 81.827 23.5667 81.707 23.26C81.587 22.9533 81.4337 22.8 81.247 22.8C80.8737 22.8 80.6004 23.2333 80.427 24.1C80.267 24.9533 80.187 25.74 80.187 26.46C80.187 27.6733 80.4337 28.28 80.927 28.28C81.327 28.28 81.8937 27.58 82.627 26.18L84.107 27.24C83.747 28.2133 83.2937 28.9867 82.747 29.56C82.2137 30.1333 81.567 30.42 80.807 30.42C80.047 30.42 79.3604 30.12 78.747 29.52C78.147 28.92 77.847 28.0067 77.847 26.78C77.847 25.4733 78.0604 24.1733 78.487 22.88C78.727 22.1733 79.0804 21.5933 79.547 21.14C80.027 20.6867 80.6337 20.46 81.367 20.46C82.1004 20.46 82.707 20.8333 83.187 21.58C83.6804 22.3267 83.927 23.1533 83.927 24.06C83.927 24.4467 83.867 24.78 83.747 25.06L81.847 24.88ZM89.9773 21.64V23.54C89.3373 23.54 88.844 23.5467 88.4973 23.56C88.4573 24.8933 88.4373 27.1333 88.4373 30.28L86.0773 30.06C86.0773 27.7267 86.0973 25.6133 86.1373 23.72C85.9373 23.72 85.5573 23.7533 84.9973 23.82L84.6973 22.18C85.0173 22.1133 85.5173 22.0267 86.1973 21.92C86.224 20.9333 86.2773 19.4933 86.3573 17.6L88.7373 17.82C88.6573 19.14 88.5973 20.42 88.5573 21.66C88.8907 21.6467 89.364 21.64 89.9773 21.64ZM92.8395 26.4C92.8395 27.9067 93.1729 28.66 93.8395 28.66C94.1329 28.66 94.3795 28.24 94.5795 27.4C94.7795 26.5467 94.8795 25.7333 94.8795 24.96C94.8795 23.2533 94.5995 22.4 94.0395 22.4C93.6795 22.4 93.3862 22.86 93.1595 23.78C92.9462 24.6867 92.8395 25.56 92.8395 26.4ZM90.4995 26.22C90.4995 24.98 90.7529 23.7667 91.2595 22.58C91.5262 21.98 91.8995 21.4933 92.3795 21.12C92.8729 20.7333 93.4195 20.54 94.0195 20.54C94.6195 20.54 95.1329 20.68 95.5595 20.96C95.9995 21.2267 96.3329 21.5867 96.5595 22.04C96.9995 22.9333 97.2195 23.9067 97.2195 24.96C97.2195 26.4133 96.9195 27.7067 96.3195 28.84C95.7329 29.96 94.9062 30.52 93.8395 30.52C91.6129 30.52 90.4995 29.0867 90.4995 26.22ZM102.163 22.78C101.603 22.78 101.183 23.4867 100.903 24.9C100.929 25.8333 100.943 26.7267 100.943 27.58C100.943 28.4333 100.916 29.3933 100.863 30.46L98.5428 30.26C98.5828 28.3 98.6028 27.22 98.6028 27.02C98.6028 24.5533 98.4828 22.6667 98.2428 21.36L99.7428 21.52C99.8361 21.9067 99.9428 22.2467 100.063 22.54C100.716 21.14 101.376 20.44 102.043 20.44C102.589 20.44 103.069 20.68 103.483 21.16L102.963 23C102.749 22.8533 102.483 22.78 102.163 22.78ZM104.318 24.1C104.518 23.06 104.898 22.18 105.458 21.46C106.018 20.7267 106.752 20.36 107.658 20.36C108.565 20.36 109.232 20.74 109.658 21.5C110.098 22.2467 110.318 23.3133 110.318 24.7C110.318 26.0867 110.238 28 110.078 30.44L108.398 30.3L108.238 29.66C107.612 30.02 106.972 30.2 106.318 30.2C105.665 30.2 105.125 29.9867 104.698 29.56C104.272 29.12 104.058 28.4933 104.058 27.68C104.058 26.8667 104.458 26.1667 105.258 25.58C106.072 24.9933 107.005 24.6867 108.058 24.66V24.12C108.058 23.0667 107.805 22.54 107.298 22.54C107.045 22.54 106.812 22.72 106.598 23.08C106.398 23.4267 106.252 23.8267 106.158 24.28L104.318 24.1ZM106.098 27.8C106.098 28.2267 106.352 28.44 106.858 28.44C107.205 28.44 107.572 28.36 107.958 28.2L107.998 26.52C107.372 26.5733 106.898 26.7333 106.578 27C106.258 27.2533 106.098 27.52 106.098 27.8Z" fill="white"/>
<g clip-path="url(#clip0)">
<path d="M132 39.3333V37.4668L145.484 39.9186C145.873 39.9886 146.273 39.9421 146.636 39.7855L157.107 35.252C158.796 34.666 159.719 32.8486 159.196 31.139C158.673 29.4294 156.891 28.4398 155.163 28.8994C155.144 28.9036 155.125 28.9095 155.107 28.9167L147.012 31.834C146.83 31.8991 146.63 31.8831 146.461 31.79L143.239 30H145.667C147.324 30 148.667 28.6569 148.667 27C148.667 25.3431 147.324 24 145.667 24H140.667C140.59 24 140.514 24.0133 140.443 24.0394L131.219 27.3333H126C125.632 27.3333 125.333 27.6318 125.333 28V39.3333C125.333 39.7015 125.632 40 126 40H131.333C131.702 40 132 39.7015 132 39.3333ZM132 28.4668L140.782 25.3333H145.667C146.587 25.3333 147.333 26.0794 147.333 27C147.333 27.9206 146.587 28.6667 145.667 28.6667H140.667C140.363 28.6667 140.098 28.8721 140.021 29.166C139.945 29.46 140.077 29.7686 140.343 29.916L145.814 32.9554C146.318 33.2363 146.92 33.2852 147.463 33.0885L155.529 30.182C156.124 30.0345 156.753 30.1689 157.236 30.5462C157.718 30.9238 158 31.5023 158 32.1146C157.994 32.9766 157.44 33.7393 156.622 34.0114L146.108 38.5612C145.986 38.6139 145.852 38.6292 145.722 38.6055L132 36.11V28.4668ZM130.667 36.6667V38.6667H126.667V28.6667H130.667V36.6667Z" fill="white"/>
<path d="M146 10.6666H140.667C140.299 10.6666 140 10.9651 140 11.3333V16.6666C140 17.0348 140.299 17.3333 140.667 17.3333H146C146.368 17.3333 146.667 17.0348 146.667 16.6666V11.3333C146.667 10.9651 146.368 10.6666 146 10.6666ZM142.667 16H141.333V14.6666H142.667V16ZM142.667 13.3333H141.333V12H142.667V13.3333ZM145.333 16H144V14.6666H145.333V16ZM145.333 13.3333H144V12H145.333V13.3333Z" fill="white"/>
<path d="M164.667 20.6667C164.667 19.5622 163.771 18.6667 162.667 18.6667H161.333V8.66667C161.333 8.65853 161.329 8.65267 161.329 8.64453C161.327 8.56673 161.312 8.48958 161.283 8.41732C161.277 8.40267 161.267 8.39128 161.261 8.37728C161.244 8.33854 161.224 8.30143 161.2 8.2666L155.2 0.266602C155.196 0.261393 155.189 0.260091 155.185 0.254557C155.06 0.0950521 154.869 0.00130208 154.667 0H144C143.79 0 143.592 0.0989583 143.467 0.266602L142.167 2H138.667C138.299 2 138 2.2985 138 2.66667V7.55599L137.467 8.2666C137.443 8.30143 137.423 8.33854 137.406 8.37728C137.399 8.39128 137.389 8.40267 137.384 8.41732C137.355 8.48958 137.339 8.56673 137.338 8.64453C137.338 8.65267 137.333 8.65853 137.333 8.66667V18.6667H136C134.896 18.6667 134 19.5622 134 20.6667C134 21.7712 134.896 22.6667 136 22.6667H162.667C163.771 22.6667 164.667 21.7712 164.667 20.6667ZM156.667 12H152.667C152.299 12 152 12.2985 152 12.6667V18.6667H149.333V9.33333H160V18.6667H157.333V12.6667C157.333 12.2985 157.035 12 156.667 12ZM156 13.3333V18.6667H153.333V13.3333H156ZM159.333 8H150L154.667 1.77799L159.333 8ZM144.333 1.33333H153.333L148.333 8H139.5L144.333 1.33333ZM139.333 3.33333H141.167L139.333 5.77799V3.33333ZM138.667 9.33333H148V18.6667H138.667V9.33333ZM135.333 20.6667C135.333 20.2985 135.632 20 136 20H162.667C163.035 20 163.333 20.2985 163.333 20.6667C163.333 21.0348 163.035 21.3333 162.667 21.3333H136C135.632 21.3333 135.333 21.0348 135.333 20.6667Z" fill="white"/>
<path d="M150 24H151.333V25.3333H150V24Z" fill="white"/>
<path d="M150 26.6666H151.333V28H150V26.6666Z" fill="white"/>
<path d="M152.667 24H154V25.3333H152.667V24Z" fill="white"/>
<path d="M152.667 26.6666H154V28H152.667V26.6666Z" fill="white"/>
<path d="M155.333 24H156.667V25.3333H155.333V24Z" fill="white"/>
<path d="M155.333 26.6666H156.667V28H155.333V26.6666Z" fill="white"/>
<path d="M158 24H159.333V25.3333H158V24Z" fill="white"/>
</g>
<defs>
<clipPath id="clip0">
<rect width="40" height="40" fill="white" transform="translate(125)"/>
</clipPath>
</defs>
</svg>
